<svg id="dribbble" xmlns="http://www.w3.org/2000/svg" width="49" height="49" viewBox="0 0 49 49">
  <defs>
    <style>
      .cls-1 {
        fill: #34363a;
        stroke: #585b60;
        stroke-linejoin: round;
        stroke-width: 2px;
      }

      .cls-2 {
        fill: #d0d1d2;
        fill-rule: evenodd;
      }
    </style>
  </defs>
  <circle id="Ellipse_1_copy_15" data-name="Ellipse 1 copy 15" class="cls-1" cx="24.845" cy="24.5" r="20.965"/>
  <path id="Dribble" class="cls-2" d="M1155.56,10162.7a51.324,51.324,0,0,0-3.17-5,8.891,8.891,0,0,0-4.72,6A30.113,30.113,0,0,0,1155.56,10162.7Zm1.07,2.8a0.464,0.464,0,0,0,.34-0.1c-0.22-.4-0.45-0.9-0.7-1.4a31.8,31.8,0,0,1-8.77,1.2c-0.01.1-.01,0.2-0.01,0.3a8.456,8.456,0,0,0,2.19,5.7h0A13.539,13.539,0,0,1,1156.63,10165.5Zm-5.85,6.7h0c-0.06,0-.13-0.1-0.19-0.1A0.32,0.32,0,0,0,1150.78,10172.2Zm3.21-15h0Zm7.69,1.9a8.2,8.2,0,0,0-5.64-2.2,6.813,6.813,0,0,0-2.02.3,36.193,36.193,0,0,1,3.2,5A10.372,10.372,0,0,0,1161.68,10159.1Zm-5.64,16.4a10,10,0,1,1,10.01-10A10.019,10.019,0,0,1,1156.04,10175.5Zm1.45-8.6c-5.02,1.7-6.67,5.2-6.71,5.3a8.722,8.722,0,0,0,5.26,1.8,7.488,7.488,0,0,0,3.33-.7,35.358,35.358,0,0,0-1.82-6.4h-0.06Zm0.39-3.5a9.946,9.946,0,0,1,.56,1.3c0.07,0.1.13,0.3,0.19,0.4a19.124,19.124,0,0,1,5.95.3,8.816,8.816,0,0,0-1.94-5.4A9.753,9.753,0,0,1,1157.88,10163.4Zm1.27,3.1a34.57,34.57,0,0,1,1.66,6.1,8.664,8.664,0,0,0,3.67-5.8A12.987,12.987,0,0,0,1159.15,10166.5Z" transform="translate(-1132 -10140)"/>
</svg>
