<svg id="g_" data-name="g +" xmlns="http://www.w3.org/2000/svg" width="49" height="49" viewBox="0 0 49 49">
  <defs>
    <style>
      .cls-1 {
        fill: #34363a;
        stroke: #585b60;
        stroke-linejoin: round;
        stroke-width: 2px;
      }

      .cls-2 {
        fill: #d0d1d2;
        fill-rule: evenodd;
      }
    </style>
  </defs>
  <circle id="Ellipse_1_copy_12" data-name="Ellipse 1 copy 12" class="cls-1" cx="24.25" cy="24.5" r="20.969"/>
  <path id="Google_Plus_Logo" data-name="Google Plus Logo" class="cls-2" d="M962.174,10154.6h-4.8a7.141,7.141,0,0,0-4.948,1.5,5.078,5.078,0,0,0-1.672,3.6,4.125,4.125,0,0,0,4.343,4.1h0.8a2.668,2.668,0,0,0-.221,1,2.609,2.609,0,0,0,.739,1.7l0.046,0.1h-0.081a11.077,11.077,0,0,0-4.918,1.2,3.721,3.721,0,0,0-2.016,3.2c0,1.9,1.74,3.8,5.627,3.8,4.52,0,6.885-2.6,6.885-5,0-1.8-1.068-2.8-2.2-3.7l-0.957-.8a1.271,1.271,0,0,1-.663-1.1,1.749,1.749,0,0,1,.693-1.2l0.034-.1c1.033-.8,2.2-1.7,2.2-3.7a4.545,4.545,0,0,0-1.856-3.6h1.647l1.371-.8a0.225,0.225,0,0,0,.044-0.1C962.261,10154.6,962.22,10154.6,962.174,10154.6Zm-5.817,19c-2.755,0-4.606-1.2-4.606-3.2,0-1.2.757-2.1,2.249-2.7a10.193,10.193,0,0,1,2.75-.4h0.6c1.928,1.4,2.855,2.1,2.855,3.5C960.205,10172.6,958.731,10173.6,956.357,10173.6Zm-0.026-10.5c-2.312,0-3.271-3.1-3.271-4.7a3.246,3.246,0,0,1,.575-2,2.455,2.455,0,0,1,1.833-.8c2.123,0,3.3,2.8,3.3,4.8a2.6,2.6,0,0,1-.654,1.9A2.486,2.486,0,0,1,956.331,10163.1Zm12.565,0.9h-2.527v-2.5a0.082,0.082,0,0,0-.1-0.1h-1.088c-0.057,0-.1,0-0.1.1v2.5h-2.515a0.082,0.082,0,0,0-.1.1v1.1a0.082,0.082,0,0,0,.1.1h2.515v2.6a0.173,0.173,0,0,0,.1.1h1.088a0.176,0.176,0,0,0,.1-0.1v-2.6H968.9a0.082,0.082,0,0,0,.1-0.1v-1.1C969,10164,968.954,10164,968.9,10164Z" transform="translate(-935 -10140)"/>
</svg>
