<svg id="in" xmlns="http://www.w3.org/2000/svg" width="49" height="49" viewBox="0 0 49 49">
  <defs>
    <style>
      .cls-1 {
        fill: #34363a;
        stroke: #585b60;
        stroke-linejoin: round;
        stroke-width: 2px;
      }

      .cls-2 {
        fill: #d0d1d2;
        fill-rule: evenodd;
      }
    </style>
  </defs>
  <circle id="Ellipse_1_copy_11" data-name="Ellipse 1 copy 11" class="cls-1" cx="24.594" cy="24.5" r="20.969"/>
  <path id="Linkedin_Logo" data-name="Linkedin Logo" class="cls-2" d="M902.725,10166.5v7h-4.012v-6.5c0-1.6-.58-2.7-2.032-2.7a2.171,2.171,0,0,0-2.059,1.4,2.879,2.879,0,0,0-.133,1v6.8h-4.014s0.054-11,0-12.1h4.013v1.7h0a4.03,4.03,0,0,1,3.617-2C900.746,10161.1,902.725,10162.8,902.725,10166.5Zm-16.448-10.9a2.059,2.059,0,1,0-.054,4.1h0.027A2.06,2.06,0,1,0,886.277,10155.6Zm-2.033,17.9h4.012v-12.1h-4.012v12.1Z" transform="translate(-869 -10140)"/>
</svg>
