<svg id="pint" xmlns="http://www.w3.org/2000/svg" width="49" height="49" viewBox="0 0 49 49">
  <defs>
    <style>
      .cls-1 {
        fill: #34363a;
        stroke: #585b60;
        stroke-linejoin: round;
        stroke-width: 2px;
      }

      .cls-2 {
        fill: #d0d1d2;
        fill-rule: evenodd;
      }
    </style>
  </defs>
  <circle id="Ellipse_1_copy_14" data-name="Ellipse 1 copy 14" class="cls-1" cx="24.205" cy="24.5" r="20.955"/>
  <path id="Social_Pinterest" data-name="Social Pinterest" class="cls-2" d="M1086.05,10166.2c0.97-1.7-.31-2.1-0.51-3.3-0.82-5,5.86-8.4,9.35-4.9,2.43,2.4.83,9.8-3.07,9-3.74-.7,1.83-6.6-1.15-7.7-2.43-1-3.72,2.8-2.57,4.7-0.67,3.3-2.12,6.4-1.54,10.4,1.91-1.3,2.55-3.9,3.08-6.6,0.96,0.6,1.47,1.2,2.69,1.2,4.51,0.4,7.03-4.4,6.41-8.7-0.55-3.9-4.5-5.9-8.72-5.4-3.33.3-6.65,3-6.79,6.7C1083.14,10163.9,1083.81,10165.7,1086.05,10166.2Z" transform="translate(-1067 -10140)"/>
</svg>
