<svg id="twt" xmlns="http://www.w3.org/2000/svg" width="49" height="49" viewBox="0 0 49 49">
  <defs>
    <style>
      .cls-1 {
        fill: #34363a;
        stroke: #585b60;
        stroke-linejoin: round;
        stroke-width: 2px;
      }

      .cls-2 {
        fill: #d0d1d2;
        fill-rule: evenodd;
      }
    </style>
  </defs>
  <circle id="Ellipse_1_copy_9" data-name="Ellipse 1 copy 9" class="cls-1" cx="24.657" cy="24.5" r="20.969"/>
  <path id="Social_Twitter_Bird_Symbol" data-name="Social Twitter Bird Symbol" class="cls-2" d="M771.054,10156.6a6.193,6.193,0,0,1-2.6,1,4.08,4.08,0,0,0-2.99-1.3,4.14,4.14,0,0,0-4.1,4.1,4.253,4.253,0,0,0,.106,1,11.678,11.678,0,0,1-8.443-4.3,4.076,4.076,0,0,0-.554,2.1,4.2,4.2,0,0,0,1.822,3.4,4,4,0,0,1-1.855-.6v0.1a4.088,4.088,0,0,0,3.285,4,3.88,3.88,0,0,1-1.079.2c-0.264,0-.52-0.1-0.771-0.1a4.052,4.052,0,0,0,3.826,2.8,8.252,8.252,0,0,1-5.087,1.8,3.224,3.224,0,0,1-.978-0.1,11.335,11.335,0,0,0,6.28,1.9,11.62,11.62,0,0,0,11.655-11.7l-0.014-.5a8.957,8.957,0,0,0,2.047-2.1,9.091,9.091,0,0,1-2.351.6A4.027,4.027,0,0,0,771.054,10156.6Z" transform="translate(-737 -10140)"/>
</svg>
